<svg width="6" height="22" viewBox="0 0 6 22" fill="none" xmlns="http://www.w3.org/2000/svg">
<path d="M2.99967 14.6667C3.4859 14.6667 3.95222 14.4735 4.29604 14.1297C4.63985 13.7859 4.83301 13.3196 4.83301 12.8333V1.83333C4.83301 1.3471 4.63985 0.880788 4.29604 0.536971C3.95222 0.193155 3.4859 0 2.99967 0C2.51344 0 2.04713 0.193155 1.70331 0.536971C1.3595 0.880788 1.16634 1.3471 1.16634 1.83333V12.8333C1.16634 13.3196 1.3595 13.7859 1.70331 14.1297C2.04713 14.4735 2.51344 14.6667 2.99967 14.6667ZM2.99967 22C3.45292 22 3.89599 21.8656 4.27286 21.6138C4.64972 21.362 4.94345 21.0041 5.1169 20.5853C5.29035 20.1666 5.33573 19.7058 5.24731 19.2613C5.15888 18.8167 4.94062 18.4084 4.62013 18.0879C4.29963 17.7674 3.8913 17.5491 3.44676 17.4607C3.00222 17.3723 2.54144 17.4177 2.12269 17.5911C1.70394 17.7646 1.34603 18.0583 1.09422 18.4352C0.842411 18.812 0.708008 19.2551 0.708008 19.7083C0.708008 20.3161 0.949451 20.899 1.37922 21.3288C1.80899 21.7586 2.39189 22 2.99967 22Z" fill="#FEFEFF"/>
</svg>
