<svg width="32" height="33" viewBox="0 0 32 33" fill="none" xmlns="http://www.w3.org/2000/svg">
<path d="M27.9931 9.48082C27.9709 9.25675 27.8923 9.04196 27.7645 8.85658C27.6367 8.67119 27.464 8.52126 27.2624 8.42082L16.5958 3.08749C16.4105 2.99479 16.2062 2.94653 15.9991 2.94653C15.792 2.94653 15.5877 2.99479 15.4024 3.08749L4.73576 8.42082C4.53479 8.52183 4.36258 8.67194 4.23508 8.85724C4.10759 9.04254 4.02894 9.25703 4.00643 9.48082C3.99176 9.62349 2.72509 23.8368 15.4584 29.4995C15.6286 29.5763 15.8131 29.616 15.9998 29.616C16.1864 29.616 16.371 29.5763 16.5411 29.4995C29.2744 23.8368 28.0078 9.62482 27.9931 9.48082ZM15.9998 26.8102C6.97443 22.4475 6.54776 13.1368 6.62109 10.4608L15.9998 5.77149L25.3718 10.4582C25.4211 13.1102 24.9344 22.4822 15.9998 26.8102Z" fill="#181818"/>
<path d="M14.6668 17.0621L11.6095 14.0048L9.72412 15.8901L14.6668 20.8328L22.2761 13.2235L20.3908 11.3381L14.6668 17.0621Z" fill="#181818"/>
</svg>
