<svg width="28" height="28" viewBox="0 0 28 28" fill="none" xmlns="http://www.w3.org/2000/svg">
<path d="M22.2195 8.6346C22.6605 8.1936 22.9032 7.60794 22.9032 6.98494C22.9032 6.36194 22.6605 5.77627 22.2195 5.33527L20.3692 3.48494C19.9282 3.04394 19.3425 2.80127 18.7195 2.80127C18.0965 2.80127 17.5108 3.04394 17.071 3.48377L4.66699 15.8493V21.0001H9.81549L22.2195 8.6346ZM18.7195 5.1346L20.571 6.98377L18.716 8.83177L16.8657 6.9826L18.7195 5.1346ZM7.00033 18.6668V16.8176L15.2137 8.62994L17.064 10.4803L8.85183 18.6668H7.00033ZM4.66699 23.3334H23.3337V25.6668H4.66699V23.3334Z" fill="#181818"/>
</svg>
