<svg width="22" height="22" viewBox="0 0 22 22" fill="none" xmlns="http://www.w3.org/2000/svg">
<path d="M4.58333 20.1667H17.4167C17.9029 20.1667 18.3692 19.9735 18.713 19.6297C19.0568 19.2859 19.25 18.8196 19.25 18.3334V10.0834C19.2507 9.96273 19.2276 9.84314 19.182 9.73145C19.1363 9.61977 19.0691 9.51819 18.9842 9.43253L11.6508 2.0992C11.4791 1.92847 11.2468 1.83264 11.0046 1.83264C10.7624 1.83264 10.5301 1.92847 10.3583 2.0992L3.025 9.43253C2.93839 9.51743 2.86948 9.61867 2.82227 9.73039C2.77507 9.84211 2.7505 9.96209 2.75 10.0834V18.3334C2.75 18.8196 2.94315 19.2859 3.28697 19.6297C3.63079 19.9735 4.0971 20.1667 4.58333 20.1667ZM9.16667 18.3334V13.75H12.8333V18.3334H9.16667ZM4.58333 10.4592L11 4.04253L17.4167 10.4592V18.3334H14.6667V13.75C14.6667 13.2638 14.4735 12.7975 14.1297 12.4537C13.7859 12.1099 13.3196 11.9167 12.8333 11.9167H9.16667C8.68044 11.9167 8.21412 12.1099 7.87031 12.4537C7.52649 12.7975 7.33333 13.2638 7.33333 13.75V18.3334H4.58333V10.4592Z" fill="#181818"/>
</svg>
