<svg width="22" height="22" viewBox="0 0 22 22" fill="none" xmlns="http://www.w3.org/2000/svg">
<path d="M11 1.83325C10.0935 1.83325 9.20736 2.10206 8.45364 2.60568C7.69991 3.10931 7.11245 3.82512 6.76555 4.66262C6.41865 5.50011 6.32789 6.42167 6.50473 7.31075C6.68158 8.19983 7.1181 9.0165 7.75909 9.65749C8.40008 10.2985 9.21676 10.735 10.1058 10.9119C10.9949 11.0887 11.9165 10.9979 12.754 10.651C13.5915 10.3041 14.3073 9.71667 14.8109 8.96295C15.3145 8.20922 15.5833 7.32308 15.5833 6.41659C15.5833 5.20101 15.1004 4.03522 14.2409 3.17568C13.3814 2.31614 12.2156 1.83325 11 1.83325V1.83325ZM11 9.16658C10.4561 9.16658 9.92442 9.0053 9.47218 8.70313C9.01995 8.40095 8.66747 7.97146 8.45933 7.46896C8.25119 6.96647 8.19673 6.41353 8.30284 5.88009C8.40895 5.34664 8.67086 4.85664 9.05546 4.47204C9.44005 4.08745 9.93005 3.82554 10.4635 3.71943C10.9969 3.61332 11.5499 3.66778 12.0524 3.87592C12.5549 4.08406 12.9844 4.43653 13.2865 4.88877C13.5887 5.341 13.75 5.87269 13.75 6.41659C13.75 7.14593 13.4603 7.8454 12.9445 8.36113C12.4288 8.87685 11.7293 9.16658 11 9.16658V9.16658ZM19.25 19.2499V18.3333C19.25 16.6314 18.574 14.9993 17.3706 13.796C16.1672 12.5926 14.5351 11.9166 12.8333 11.9166H9.16667C7.46486 11.9166 5.83276 12.5926 4.6294 13.796C3.42604 14.9993 2.75 16.6314 2.75 18.3333V19.2499H4.58333V18.3333C4.58333 17.1177 5.06622 15.9519 5.92576 15.0923C6.7853 14.2328 7.95109 13.7499 9.16667 13.7499H12.8333C14.0489 13.7499 15.2147 14.2328 16.0742 15.0923C16.9338 15.9519 17.4167 17.1177 17.4167 18.3333V19.2499H19.25Z" fill="#181818"/>
</svg>
