<svg width="22" height="22" viewBox="0 0 22 22" fill="none" xmlns="http://www.w3.org/2000/svg">
<path d="M19.8973 4.85013L17.1482 2.10196C17.0633 2.01667 16.9623 1.94903 16.851 1.90294C16.7398 1.85684 16.6206 1.8332 16.5002 1.83337H5.50017C5.37977 1.8332 5.26052 1.85684 5.1493 1.90294C5.03807 1.94903 4.93706 2.01667 4.85208 2.10196L2.103 4.85013C2.01735 4.93508 1.94943 5.03619 1.90316 5.1476C1.8569 5.25901 1.83322 5.37849 1.8335 5.49913V17.4167C1.8335 18.4278 2.65575 19.25 3.66683 19.25H18.3335C19.3446 19.25 20.1668 18.4278 20.1668 17.4167V5.49913C20.1671 5.37849 20.1434 5.25901 20.0972 5.1476C20.0509 5.03619 19.983 4.93508 19.8973 4.85013V4.85013ZM5.87967 3.66671H16.1207L17.0364 4.58246H4.96392L5.87967 3.66671ZM3.66683 17.4167V6.41579H18.3335L18.3353 17.4167H3.66683Z" fill="#181818"/>
<path d="M13.7498 11H8.24984V9.16663H6.4165V12.8333H15.5832V9.16663H13.7498V11Z" fill="#181818"/>
</svg>
