<svg width="22" height="22" viewBox="0 0 22 22" fill="none" xmlns="http://www.w3.org/2000/svg">
<path d="M4.5835 16.5V19.9522L5.97225 19.1189L10.3374 16.5H14.6668C15.6779 16.5 16.5002 15.6778 16.5002 14.6667V7.33333C16.5002 6.32225 15.6779 5.5 14.6668 5.5H3.66683C2.65575 5.5 1.8335 6.32225 1.8335 7.33333V14.6667C1.8335 15.6778 2.65575 16.5 3.66683 16.5H4.5835ZM3.66683 7.33333H14.6668V14.6667H9.82958L6.41683 16.7145V14.6667H3.66683V7.33333Z" fill="#181818"/>
<path d="M18.3333 1.83325H7.33333C6.32225 1.83325 5.5 2.6555 5.5 3.66659H16.5C17.5111 3.66659 18.3333 4.48884 18.3333 5.49992V12.8333C19.3444 12.8333 20.1667 12.011 20.1667 10.9999V3.66659C20.1667 2.6555 19.3444 1.83325 18.3333 1.83325Z" fill="#181818"/>
</svg>
