<svg width="48" height="48" viewBox="0 0 48 48" fill="none" xmlns="http://www.w3.org/2000/svg">
<path d="M37.2675 25.7325C37.0355 25.5002 36.76 25.3158 36.4567 25.19C36.1535 25.0643 35.8283 24.9995 35.5 24.9995C35.1717 24.9995 34.8466 25.0643 34.5433 25.19C34.24 25.3158 33.9645 25.5002 33.7325 25.7325L29.7475 29.7175C27.9 29.1675 24.4525 27.9175 22.2675 25.7325C20.0825 23.5475 18.8325 20.1 18.2825 18.2525L22.2675 14.2675C22.4999 14.0355 22.6842 13.76 22.81 13.4567C22.9358 13.1535 23.0005 12.8283 23.0005 12.5C23.0005 12.1717 22.9358 11.8466 22.81 11.5433C22.6842 11.24 22.4999 10.9645 22.2675 10.7325L12.2675 0.732514C12.0355 0.50015 11.76 0.315806 11.4567 0.190029C11.1535 0.0642519 10.8283 -0.000488281 10.5 -0.000488281C10.1717 -0.000488281 9.84657 0.0642519 9.54328 0.190029C9.23999 0.315806 8.96448 0.50015 8.73251 0.732514L1.95251 7.51252C1.00251 8.46251 0.46751 9.76752 0.48751 11.1C0.54501 14.66 1.48751 27.025 11.2325 36.77C20.9775 46.515 33.3425 47.455 36.905 47.515H36.975C38.295 47.515 39.5425 46.995 40.4875 46.05L47.2675 39.27C47.4999 39.038 47.6842 38.7625 47.81 38.4592C47.9358 38.156 48.0005 37.8308 48.0005 37.5025C48.0005 37.1742 47.9358 36.8491 47.81 36.5458C47.6842 36.2425 47.4999 35.967 47.2675 35.735L37.2675 25.7325ZM36.95 42.5125C33.83 42.46 23.155 41.6225 14.7675 33.2325C6.35251 24.8175 5.53751 14.105 5.48751 11.0475L10.5 6.03502L16.965 12.5L13.7325 15.7325C13.4387 16.0261 13.2226 16.3884 13.1039 16.7864C12.9852 17.1845 12.9675 17.6059 13.0525 18.0125C13.1125 18.3 14.58 25.1175 18.73 29.2675C22.88 33.4175 29.6975 34.885 29.985 34.945C30.3914 35.0324 30.8132 35.0162 31.2116 34.8978C31.6101 34.7794 31.9723 34.5626 32.265 34.2675L35.5 31.035L41.965 37.5L36.95 42.5125Z" fill="#2241D4"/>
</svg>
