<svg width="35" height="35" viewBox="0 0 35 35" fill="none" xmlns="http://www.w3.org/2000/svg">
<path d="M14.3208 17.9082C13.5674 16.7134 12.9802 15.4215 12.5753 14.0682L15.3506 11.293C15.5142 11.1307 15.644 10.9377 15.7326 10.725C15.8213 10.5123 15.8669 10.2841 15.8669 10.0537C15.8669 9.82328 15.8213 9.59514 15.7326 9.38244C15.644 9.16974 15.5142 8.97669 15.3506 8.81443L8.36876 1.83261C8.04172 1.50752 7.59934 1.32505 7.13821 1.32505C6.67709 1.32505 6.2347 1.50752 5.90767 1.83261L1.22985 6.56279C0.898951 6.89168 0.637332 7.28355 0.460453 7.71525C0.283573 8.14696 0.195022 8.60974 0.20003 9.07625C0.350412 15.1945 2.57879 21.0794 6.51858 25.7628L0.723667 31.5053L3.18476 33.9839L34.6029 2.5657L32.1418 0.0871582L14.3208 17.9082ZM8.9273 23.2319C5.65362 19.2149 3.8112 14.2219 3.69094 9.04134L7.18185 5.55043L11.7026 10.0537L9.45094 12.3053C9.24416 12.5121 9.09264 12.7675 9.0103 13.0481C8.92795 13.3287 8.91742 13.6254 8.97967 13.9112C9.50939 16.2382 10.4683 18.4461 11.8073 20.4217L8.9273 23.2319ZM25.8757 19.2872C25.5486 18.9621 25.1062 18.7796 24.6451 18.7796C24.184 18.7796 23.7416 18.9621 23.4146 19.2872L20.6218 22.0799L20.0284 21.8704L17.3055 24.5759C18.4333 25.0609 19.6014 25.4464 20.7964 25.7279C21.0795 25.7871 21.3728 25.775 21.6501 25.6927C21.9273 25.6105 22.1798 25.4606 22.3848 25.2566L24.6538 22.9875L29.1571 27.5082L25.6662 30.9992C21.6118 30.8937 17.6519 29.752 14.1637 27.6828L11.6677 30.2137C15.8471 32.8816 20.6746 34.36 25.6313 34.4901C26.0937 34.495 26.5524 34.4081 26.9809 34.2343C27.4094 34.0605 27.799 33.8033 28.1273 33.4777L32.8575 28.7475C33.0211 28.5853 33.1509 28.3922 33.2395 28.1795C33.3282 27.9668 33.3738 27.7387 33.3738 27.5082C33.3738 27.2778 33.3282 27.0497 33.2395 26.837C33.1509 26.6243 33.0211 26.4312 32.8575 26.269L25.8757 19.2872Z" fill="#2241D4"/>
</svg>
