<svg width="36" height="34" viewBox="0 0 36 34" fill="none" xmlns="http://www.w3.org/2000/svg">
<path d="M31.6182 11.0538H21.8227L23.7828 5.17684C24.1354 4.1156 23.9574 2.93916 23.3028 2.03153C22.6483 1.12389 21.5871 0.581055 20.4682 0.581055H17.6545C17.1361 0.581055 16.6457 0.811454 16.3123 1.20942L8.10865 11.0538H3.69091C1.76567 11.0538 0.199997 12.6195 0.199997 14.5447V30.2538C0.199997 32.179 1.76567 33.7447 3.69091 33.7447H26.9177C27.6279 33.7423 28.3206 33.5245 28.9044 33.1199C29.4881 32.7154 29.9353 32.1432 30.1869 31.4791L34.9991 18.6483C35.0722 18.4523 35.1094 18.2448 35.1091 18.0356V14.5447C35.1091 12.6195 33.5434 11.0538 31.6182 11.0538ZM3.69091 14.5447H7.18181V30.2538H3.69091V14.5447ZM31.6182 17.7197L26.9177 30.2538H10.6727V13.4311L18.4714 4.07196H20.4717L17.7453 12.2459C17.6568 12.5083 17.6321 12.788 17.6733 13.0618C17.7145 13.3356 17.8203 13.5957 17.9821 13.8204C18.1439 14.0451 18.3569 14.2281 18.6035 14.354C18.85 14.48 19.1231 14.5453 19.4 14.5447H31.6182V17.7197Z" fill="#2241D4"/>
</svg>
