<svg width="36" height="32" viewBox="0 0 36 32" fill="none" xmlns="http://www.w3.org/2000/svg">
<path d="M31.6182 0.326416H5.43636C2.54938 0.326416 0.199997 2.6758 0.199997 5.56278V26.5082C0.199997 29.3952 2.54938 31.7446 5.43636 31.7446H31.6182C33.5434 31.7446 35.1091 30.1789 35.1091 28.2537V3.81733C35.1091 1.89209 33.5434 0.326416 31.6182 0.326416ZM5.43636 28.2537C4.47287 28.2537 3.69091 27.47 3.69091 26.5082V5.56278C3.69091 4.60103 4.47287 3.81733 5.43636 3.81733H31.6182V9.05369H21.1455C19.2202 9.05369 17.6545 10.6194 17.6545 12.5446V19.5264C17.6545 21.4517 19.2202 23.0173 21.1455 23.0173H31.6199V28.2537H5.43636ZM31.6182 12.5446V19.5264H21.1455V12.5446H31.6182Z" fill="#2241D4"/>
</svg>
