<svg aria-hidden="true" style="position: absolute; width: 0; height: 0; overflow: hidden;" version="1.1" xmlns="http://www.w3.org/2000/svg" xmlns:xlink="http://www.w3.org/1999/xlink">
    <defs>
        <symbol id="icon-clock" viewBox="0 0 32 32">
            <svg width="36" height="36" viewBox="0 0 36 36" fill="none" xmlns="http://www.w3.org/2000/svg">
                <path d="M34.1282 5.97266C33.8692 5.83672 33.5803 5.76789 33.2879 5.77246C32.9955 5.77704 32.7088 5.85487 32.4543 5.99884C31.2604 6.67782 30.0892 7.00597 28.8709 7.00597C25.3189 7.00597 21.9728 4.16262 18.8834 1.08888C18.2288 0.437822 17.028 0.437822 16.3734 1.08888C13.4515 4.00029 9.97108 6.97455 6.32657 6.97455C5.12221 6.97455 3.96846 6.65339 2.80424 5.99535C2.2841 5.7056 1.65574 5.69688 1.12861 5.9744C0.601481 6.25193 0.254135 6.77906 0.207008 7.37251C0.187808 7.59768 -1.4407 29.84 17.1082 35.3713C17.2702 35.4201 17.4384 35.4448 17.6074 35.4447H17.6546C17.8239 35.4447 17.9897 35.4202 18.152 35.3731C36.7533 29.84 35.0742 7.59244 35.055 7.36902C35.0301 7.0772 34.9321 6.79635 34.7701 6.55232C34.6082 6.3083 34.3874 6.10896 34.1282 5.97266V5.97266ZM17.6301 31.8787C5.44861 27.9427 3.7817 15.4505 3.64206 10.1007C4.52352 10.345 5.42068 10.4655 6.32483 10.4655C10.6745 10.4655 14.4412 7.73033 17.6284 4.73513C20.9325 7.856 24.5805 10.4969 28.8726 10.4969C29.7977 10.4969 30.7176 10.3677 31.6217 10.1129C31.4925 15.4627 29.8396 27.9462 17.6301 31.8787Z" fill="#2241D4"/>
            </svg>
        </symbol>
        <symbol id="icon-card" viewBox="0 0 32 32">
            <path d="M11.148 4.374c0.073-0.123 0.185-0.242 0.334-0.332 0.236-0.143 0.506-0.178 0.756-0.116s0.474 0.216 0.614 0.448l8.466 14.133c0.070 0.12 0.119 0.268 0.128 0.434-0.015 0.368-0.119 0.591-0.283 0.759-0.18 0.184-0.427 0.298-0.693 0.301l-16.937-0.001c-0.152-0.001-0.321-0.041-0.481-0.134-0.239-0.138-0.399-0.359-0.466-0.607s-0.038-0.519 0.092-0.745zM9.432 3.346l-8.47 14.14c-0.422 0.731-0.506 1.55-0.308 2.29s0.68 1.408 1.398 1.822c0.464 0.268 0.976 0.4 1.475 0.402h16.943c0.839-0.009 1.587-0.354 2.123-0.902s0.864-1.303 0.855-2.131c-0.006-0.536-0.153-1.044-0.406-1.474l-8.474-14.147c-0.432-0.713-1.11-1.181-1.854-1.363s-1.561-0.081-2.269 0.349c-0.429 0.26-0.775 0.615-1.012 1.014zM11 9v4c0 0.552 0.448 1 1 1s1-0.448 1-1v-4c0-0.552-0.448-1-1-1s-1 0.448-1 1zM12 18c0.552 0 1-0.448 1-1s-0.448-1-1-1-1 0.448-1 1 0.448 1 1 1z"></path>
        </symbol>
        <symbol id="icon-phone" viewBox="0 0 32 32">
            <path d="M12.707 18.293l-5.293-5.293h11.586c0.552 0 1-0.448 1-1s-0.448-1-1-1h-11.586l5.293-5.293c0.391-0.391 0.391-1.024 0-1.414s-1.024-0.391-1.414 0l-7 7c-0.096 0.096-0.168 0.206-0.217 0.324-0.051 0.122-0.076 0.253-0.076 0.383 0 0.256 0.098 0.512 0.293 0.707l7 7c0.391 0.391 1.024 0.391 1.414 0s0.391-1.024 0-1.414z"></path>
        </symbol>
    </defs>
</svg>
