<svg width="1440" height="670" viewBox="0 0 1440 670" fill="none" xmlns="http://www.w3.org/2000/svg">
<mask id="mask0_119_10880" style="mask-type:alpha" maskUnits="userSpaceOnUse" x="0" y="0" width="1440" height="670">
<rect width="1440" height="670" fill="#EFF3F9"/>
</mask>
<g mask="url(#mask0_119_10880)">
<g opacity="0.1">
<path d="M206 575.04H0V789.04H206V575.04Z" fill="#BDD7FF"/>
<path d="M618 798.04H823V593.04C709.766 593.04 618 684.844 618 798.04Z" fill="#BDD7FF"/>
<path d="M618 388.04H412V594.04C525.786 594.04 618 501.788 618 388.04Z" fill="#4278EE"/>
<path d="M823 388.04H617C617 501.826 709.214 594.04 823 594.04V388.04Z" fill="#BDD7FF"/>
<path d="M1440 388.04H1255V594.04H1440V388.04Z" fill="#D3DFFF"/>
<path d="M206 789.04C92.2136 789.04 0 701.73 0 594.04H206V789.04Z" fill="#4278EE"/>
<path d="M206 583.04C319.786 583.04 412 675.274 412 789.04H206V583.04Z" fill="#D3DFFF"/>
<path d="M1234 388.04C1120.21 388.04 1028 480.274 1028 594.04H1234V388.04Z" fill="#D3DFFF"/>
<path d="M1234 594.04C1347.23 594.04 1439 501.805 1439 388.04H1234V594.04Z" fill="#4278EE"/>
<path d="M206 594.04H0C0 480.253 92.2135 388.04 206 388.04V594.04Z" fill="#D3DFFF"/>
<path d="M206 594.04V388.04H411C411 501.826 319.234 594.04 206 594.04Z" fill="#BDD7FF"/>
<circle cx="394" cy="472.04" r="71" fill="#D3DFFF"/>
<path d="M438.5 472.04C438.5 497.193 418.328 517.54 393.5 517.54C368.672 517.54 348.5 497.193 348.5 472.04C348.5 446.886 368.672 426.54 393.5 426.54C418.328 426.54 438.5 446.886 438.5 472.04Z" stroke="white" stroke-width="5"/>
<path d="M421.5 472.04C421.5 487.189 409.003 499.54 393.5 499.54C377.997 499.54 365.5 487.189 365.5 472.04C365.5 456.891 377.997 444.54 393.5 444.54C409.003 444.54 421.5 456.891 421.5 472.04Z" stroke="white" stroke-width="5"/>
<path d="M1028 594.04C914.214 594.04 822 501.826 822 388.04H1028V594.04Z" fill="#D3DFFF"/>
<path d="M1231.54 388.038C1231.54 500.31 1140.2 591.663 1027.94 591.663V593.659C1141.31 593.659 1233.54 501.423 1233.54 388.038H1231.54Z" fill="#2241D4"/>
<path d="M1210.05 388.038C1210.05 488.45 1128.38 570.13 1027.98 570.13V572.126C1129.49 572.126 1212.04 489.524 1212.04 388.038H1210.05Z" fill="#2241D4"/>
<path d="M1188.52 388.038C1188.52 476.589 1116.48 548.597 1027.98 548.597V550.593C1117.63 550.593 1190.55 477.664 1190.55 388L1188.52 388.038Z" fill="#2241D4"/>
<path d="M1167.03 388.038C1167.03 464.729 1104.66 527.102 1027.98 527.102V529.098C1105.77 529.098 1169.02 465.803 1169.02 388.038H1167.03Z" fill="#2241D4"/>
<path d="M1145.49 388.038C1145.49 452.83 1092.76 505.569 1027.98 505.569V507.565C1093.87 507.603 1147.49 453.943 1147.49 388.038H1145.49Z" fill="#2241D4"/>
<path d="M1123.96 388.038C1123.96 440.969 1080.9 484.074 1027.94 484.074V486.07C1081.98 486.07 1125.96 442.082 1125.96 388.038H1123.96Z" fill="#2241D4"/>
<path d="M1102.47 388.038C1102.47 429.109 1069.04 462.541 1027.98 462.541V464.537C1070.16 464.537 1104.47 430.222 1104.47 388.038H1102.47Z" fill="#2241D4"/>
<path d="M1080.94 388.038C1080.94 417.248 1057.18 441.008 1027.98 441.008V443.004C1058.3 443.004 1082.97 418.323 1082.97 388L1080.94 388.038Z" fill="#2241D4"/>
<path d="M1059.41 388.038C1059.41 405.388 1045.29 419.513 1027.94 419.513V421.509C1046.4 421.509 1061.4 406.501 1061.4 388.038H1059.41Z" fill="#2241D4"/>
<path d="M1038.84 388.038C1038.84 394.026 1033.96 398.901 1027.98 398.901V400.897C1035.08 400.897 1040.83 395.139 1040.83 388.038H1038.84Z" fill="#2241D4"/>
<path d="M1234 798.04H1029V593.04C1142.23 593.04 1234 684.844 1234 798.04Z" fill="#4278EE"/>
<path d="M1029 798.04H823V593.04C936.786 593.04 1029 684.844 1029 798.04Z" fill="#4278EE"/>
<path d="M618 798.04H412V593.04C525.786 593.04 618 684.844 618 798.04Z" fill="#4278EE"/>
<path d="M1440 798.04H1234C1234 684.805 1326.21 593.04 1440 593.04V798.04Z" fill="#BDD7FF"/>
<path d="M607.561 569.196C592.816 569.196 580.177 578.126 574.705 590.881C580.154 603.635 592.816 612.566 607.561 612.566C622.306 612.566 634.945 603.635 640.417 590.881C634.945 578.126 622.283 569.196 607.561 569.196Z" fill="#D3DFFF"/>
<path d="M641.012 590.881L640.92 591.11C635.196 604.482 622.1 613.138 607.561 613.138C593.022 613.138 579.925 604.482 574.201 591.11L574.11 590.881L574.201 590.652C579.925 577.279 593.022 568.624 607.561 568.624C622.1 568.624 635.196 577.279 640.92 590.652L641.012 590.881ZM575.323 590.881C580.91 603.704 593.549 611.993 607.538 611.993C621.55 611.993 634.166 603.727 639.753 590.881C634.166 578.058 621.55 569.768 607.538 569.768C593.549 569.768 580.933 578.058 575.323 590.881Z" fill="#92BEFF"/>
<path d="M658.596 590.308H575.278C574.961 590.308 574.705 590.565 574.705 590.881C574.705 591.197 574.961 591.453 575.278 591.453H658.596C658.912 591.453 659.168 591.197 659.168 590.881C659.168 590.565 658.912 590.308 658.596 590.308Z" fill="#92BEFF"/>
<path d="M598.972 590.471L591.056 582.553C590.832 582.33 590.47 582.33 590.246 582.553C590.022 582.777 590.022 583.139 590.246 583.363L598.163 591.28L598.972 590.471Z" fill="#92BEFF"/>
<path d="M614.306 590.46L601.904 578.058C601.681 577.834 601.318 577.834 601.095 578.058C600.871 578.281 600.871 578.644 601.095 578.867L613.496 591.27L614.306 590.46Z" fill="#92BEFF"/>
<path d="M629.675 590.475L614.634 575.433C614.411 575.209 614.049 575.209 613.825 575.433C613.601 575.656 613.601 576.019 613.825 576.242L628.865 591.284L629.675 590.475Z" fill="#92BEFF"/>
<path d="M597.76 590.839L590.249 598.352C590.026 598.576 590.026 598.939 590.249 599.162C590.473 599.386 590.835 599.386 591.059 599.162L598.57 591.648C598.793 591.424 598.793 591.062 598.569 590.838C598.346 590.615 597.984 590.615 597.76 590.839Z" fill="#92BEFF"/>
<path d="M613.098 590.894L601.101 602.892C600.878 603.116 600.878 603.478 601.101 603.702C601.325 603.925 601.687 603.925 601.911 603.702L613.907 591.704C614.131 591.48 614.131 591.118 613.907 590.894C613.684 590.671 613.321 590.671 613.098 590.894Z" fill="#92BEFF"/>
<path d="M628.45 590.87L613.815 605.507C613.591 605.731 613.591 606.093 613.815 606.317C614.038 606.54 614.4 606.54 614.624 606.317L629.26 591.68C629.483 591.456 629.483 591.094 629.26 590.87C629.036 590.647 628.674 590.647 628.45 590.87Z" fill="#92BEFF"/>
</g>
<g opacity="0.1">
<path d="M1031 181.04C917.214 181.04 825 273.274 825 387.04H1031V181.04Z" fill="#D3DFFF"/>
<path d="M1031.5 -11.4455C1141.93 -10.1228 1231.15 78.7143 1232.48 188.54H1031.5V-11.4455Z" stroke="#9BADFF" stroke-width="5"/>
<path d="M207 182.04H1V387.04H207V182.04Z" fill="#BDD7FF"/>
<path d="M207 387.04C93.2136 387.04 1 295.253 1 182.04H207V387.04Z" fill="#A7C0FF"/>
<path d="M1231.5 384.524C1121.63 383.196 1032.84 294.388 1031.52 184.54H1231.5V384.524Z" stroke="#9BADFF" stroke-width="5"/>
<path d="M207 182.04C320.234 182.04 412 273.827 412 387.04H207V182.04Z" fill="#D3DFFF"/>
<path d="M1235 182.04C1348.23 182.04 1440 273.827 1440 387.04H1235V182.04Z" fill="#D3DFFF"/>
<path d="M618 388.04C504.214 388.04 412 295.826 412 182.04H618V388.04Z" fill="#BDD7FF"/>
<path d="M1234 192V-13H1440C1440 100.234 1347.79 192 1234 192Z" fill="#8FA3FF"/>
<path d="M1027.61 387.532C1027.61 275.068 936.117 183.562 823.665 183.562V181.566C937.23 181.566 1029.61 273.955 1029.61 387.532H1027.61Z" fill="#2241D4"/>
<path d="M1016.83 387.532C1016.83 281.018 930.168 194.348 823.665 194.348V192.352C931.281 192.352 1018.86 279.905 1018.86 387.57L1016.83 387.532Z" fill="#2241D4"/>
<path d="M1006.08 387.532C1006.08 286.967 924.258 205.134 823.704 205.134V203.138C925.371 203.138 1008.12 285.854 1008.12 387.571L1006.08 387.532Z" fill="#2241D4"/>
<path d="M995.298 387.532C995.298 292.878 918.309 215.919 823.704 215.919V213.923C919.422 213.923 997.333 291.803 997.333 387.57L995.298 387.532Z" fill="#2241D4"/>
<path d="M984.514 387.532C984.514 298.828 912.36 226.667 823.665 226.667V224.671C913.473 224.671 986.51 297.715 986.51 387.532H984.514Z" fill="#2241D4"/>
<path d="M973.729 387.532C973.729 304.777 906.412 237.452 823.665 237.452V235.456C907.525 235.456 975.725 303.702 975.725 387.532H973.729Z" fill="#2241D4"/>
<path d="M962.945 387.532C962.945 310.727 900.463 248.238 823.665 248.238V246.242C901.576 246.242 964.94 309.652 964.94 387.571L962.945 387.532Z" fill="#2241D4"/>
<path d="M952.198 387.532C952.198 316.676 894.552 259.024 823.704 259.024V257.028C895.665 257.028 954.232 315.601 954.232 387.57L952.198 387.532Z" fill="#2241D4"/>
<path d="M941.414 387.532C941.414 322.625 888.603 269.81 823.704 269.81V267.814C889.716 267.814 943.448 321.551 943.448 387.57L941.414 387.532Z" fill="#2241D4"/>
<path d="M930.629 387.532C930.629 328.537 882.655 280.557 823.665 280.557V278.561C883.729 278.561 932.625 327.462 932.625 387.532H930.629Z" fill="#2241D4"/>
<path d="M919.844 387.532C919.844 334.486 876.706 291.343 823.665 291.343V289.347C877.819 289.347 921.84 333.411 921.84 387.532H919.844Z" fill="#2241D4"/>
<path d="M909.06 387.532C909.06 340.436 870.757 302.129 823.665 302.129V300.133C871.87 300.133 911.094 339.361 911.094 387.532H909.06Z" fill="#2241D4"/>
<path d="M898.313 387.532C898.313 346.385 864.847 312.915 823.704 312.915V310.919C865.96 310.919 900.348 345.31 900.348 387.571L898.313 387.532Z" fill="#2241D4"/>
<path d="M887.529 387.532C887.529 352.334 858.898 323.7 823.704 323.7V321.704C860.011 321.704 889.563 351.26 889.563 387.57L887.529 387.532Z" fill="#2241D4"/>
<path d="M876.744 387.532C876.744 358.284 852.949 334.448 823.665 334.448V332.452C854.023 332.452 878.74 357.171 878.74 387.532H876.744Z" fill="#2241D4"/>
<path d="M865.959 387.532C865.959 364.195 847 345.234 823.665 345.234V343.238C848.113 343.238 867.955 363.12 867.955 387.532H865.959Z" fill="#2241D4"/>
<path d="M855.175 387.532C855.175 370.144 841.051 356.019 823.665 356.019V354.023C842.164 354.023 857.209 369.07 857.209 387.532H855.175Z" fill="#2241D4"/>
<path d="M844.429 387.532C844.429 376.094 835.141 366.805 823.704 366.805V364.809C836.254 364.809 846.463 375.019 846.463 387.57L844.429 387.532Z" fill="#2241D4"/>
<path d="M834.565 387.532C834.565 381.544 829.691 376.67 823.704 376.67V374.674C830.804 374.674 836.599 380.47 836.599 387.57L834.565 387.532Z" fill="#2241D4"/>
<path d="M597 255.04C588.992 255.04 585.007 251.073 581.099 247.22C577.344 243.48 573.78 239.928 566.577 239.928C559.374 239.928 555.81 243.48 552.055 247.22C548.185 251.073 544.162 255.04 536.154 255.04C528.146 255.04 524.161 251.073 520.291 247.22C516.536 243.48 512.973 239.928 505.769 239.928C498.566 239.928 495.003 243.48 491.248 247.22C487.378 251.073 483.354 255.04 475.385 255.04C467.377 255.04 463.392 251.073 459.522 247.22C455.767 243.48 452.203 239.928 445 239.928V238.04C453.008 238.04 456.993 242.006 460.863 245.86C464.618 249.6 468.181 253.151 475.385 253.151C482.588 253.151 486.151 249.6 489.906 245.86C493.776 242.006 497.8 238.04 505.769 238.04C513.777 238.04 517.762 242.006 521.632 245.86C525.387 249.6 528.951 253.151 536.154 253.151C543.357 253.151 546.921 249.6 550.676 245.86C554.546 242.006 558.569 238.04 566.577 238.04C574.585 238.04 578.57 242.006 582.478 245.86C586.233 249.6 589.797 253.151 597 253.151V255.04Z" fill="white"/>
<path d="M1409 360.04C1400.99 360.04 1397.01 356.073 1393.1 352.22C1389.34 348.48 1385.78 344.928 1378.58 344.928C1371.37 344.928 1367.81 348.48 1364.06 352.22C1360.19 356.073 1356.16 360.04 1348.15 360.04C1340.15 360.04 1336.16 356.073 1332.29 352.22C1328.54 348.48 1324.97 344.928 1317.77 344.928C1310.57 344.928 1307 348.48 1303.25 352.22C1299.38 356.073 1295.35 360.04 1287.38 360.04C1279.38 360.04 1275.39 356.073 1271.52 352.22C1267.77 348.48 1264.2 344.928 1257 344.928V343.04C1265.01 343.04 1268.99 347.006 1272.86 350.86C1276.62 354.6 1280.18 358.151 1287.38 358.151C1294.59 358.151 1298.15 354.6 1301.91 350.86C1305.78 347.006 1309.8 343.04 1317.77 343.04C1325.78 343.04 1329.76 347.006 1333.63 350.86C1337.39 354.6 1340.95 358.151 1348.15 358.151C1355.36 358.151 1358.92 354.6 1362.68 350.86C1366.55 347.006 1370.57 343.04 1378.58 343.04C1386.59 343.04 1390.57 347.006 1394.48 350.86C1398.23 354.6 1401.8 358.151 1409 358.151V360.04Z" fill="white"/>
<path d="M207 191.04H1C1 77.8055 93.2135 -13.9604 207 -13.9604V191.04Z" fill="#4278EE"/>
<path d="M207 191.04V-13.9604H412C412 99.2736 320.234 191.04 207 191.04Z" fill="#D3DFFF"/>
<circle cx="310" cy="-13.9604" r="71" fill="#D3DFFF"/>
<circle cx="309.5" cy="-14.4604" r="45" stroke="white" stroke-width="5"/>
<circle cx="309.5" cy="-14.4604" r="28" stroke="white" stroke-width="5"/>
<path d="M824 -23.9604H618V181.04H824V-23.9604Z" fill="#D3DFFF"/>
<path d="M824 181.04H618V-23.9604C731.786 -23.9604 824 67.8437 824 181.04Z" fill="#BDD7FF"/>
<path d="M505.943 79.0896C491.198 79.0896 478.56 88.02 473.088 100.774C478.537 113.529 491.198 122.459 505.943 122.459C520.688 122.459 533.327 113.529 538.799 100.774C533.327 88.02 520.666 79.0896 505.943 79.0896Z" fill="#D3DFFF"/>
<path d="M539.394 100.774L539.303 101.003C533.579 114.376 520.482 123.032 505.943 123.032C491.405 123.032 478.308 114.376 472.584 101.003L472.492 100.774L472.584 100.545C478.308 87.1727 491.405 78.5171 505.943 78.5171C520.482 78.5171 533.579 87.1727 539.303 100.545L539.394 100.774ZM473.706 100.774C479.293 113.597 491.931 121.887 505.921 121.887C519.933 121.887 532.549 113.62 538.135 100.774C532.549 87.9512 519.933 79.662 505.921 79.662C491.931 79.662 479.315 87.9512 473.706 100.774Z" fill="#92BEFF"/>
<path d="M556.979 100.202H473.66C473.344 100.202 473.088 100.458 473.088 100.774C473.088 101.091 473.344 101.347 473.66 101.347H556.979C557.295 101.347 557.551 101.091 557.551 100.774C557.551 100.458 557.295 100.202 556.979 100.202Z" fill="#92BEFF"/>
<path d="M497.355 100.364L489.438 92.4468C489.215 92.2232 488.852 92.2232 488.629 92.4468C488.405 92.6703 488.405 93.0328 488.629 93.2563L496.545 101.174L497.355 100.364Z" fill="#92BEFF"/>
<path d="M512.688 100.354L500.287 87.9515C500.063 87.728 499.701 87.728 499.477 87.9515C499.254 88.1751 499.254 88.5376 499.477 88.7611L511.879 101.164L512.688 100.354Z" fill="#92BEFF"/>
<path d="M528.057 100.368L513.017 85.3264C512.793 85.1029 512.431 85.1029 512.208 85.3264C511.984 85.55 511.984 85.9124 512.208 86.136L527.248 101.178L528.057 100.368Z" fill="#92BEFF"/>
<path d="M496.143 100.732L488.632 108.246C488.408 108.47 488.408 108.832 488.632 109.056C488.855 109.279 489.218 109.279 489.441 109.056L496.952 101.542C497.176 101.318 497.176 100.956 496.952 100.732C496.729 100.509 496.366 100.509 496.143 100.732Z" fill="#92BEFF"/>
<path d="M511.481 100.788L499.484 112.786C499.26 113.009 499.26 113.372 499.484 113.595C499.707 113.819 500.07 113.819 500.293 113.595L512.29 101.598C512.514 101.374 512.514 101.012 512.29 100.788C512.066 100.564 511.704 100.564 511.481 100.788Z" fill="#92BEFF"/>
<path d="M526.833 100.764L512.197 115.401C511.974 115.625 511.974 115.987 512.197 116.211C512.421 116.434 512.783 116.434 513.007 116.211L527.642 101.573C527.866 101.35 527.866 100.987 527.642 100.764C527.419 100.54 527.056 100.54 526.833 100.764Z" fill="#92BEFF"/>
<path d="M1358.4 88.157C1343.66 88.157 1331.02 97.0874 1325.55 109.842C1330.99 122.596 1343.66 131.527 1358.4 131.527C1373.15 131.527 1385.78 122.596 1391.26 109.842C1385.78 97.0874 1373.12 88.157 1358.4 88.157Z" fill="#D3DFFF"/>
<path d="M1391.85 109.842L1391.76 110.071C1386.04 123.443 1372.94 132.099 1358.4 132.099C1343.86 132.099 1330.77 123.443 1325.04 110.071L1324.95 109.842L1325.04 109.613C1330.77 96.2401 1343.86 87.5845 1358.4 87.5845C1372.94 87.5845 1386.04 96.2401 1391.76 109.613L1391.85 109.842ZM1326.16 109.842C1331.75 122.665 1344.39 130.954 1358.38 130.954C1372.39 130.954 1385.01 122.688 1390.59 109.842C1385.01 97.0186 1372.39 88.7294 1358.38 88.7294C1344.39 88.7294 1331.77 97.0186 1326.16 109.842Z" fill="#92BEFF"/>
<path d="M1409.44 109.269H1326.12C1325.8 109.269 1325.55 109.526 1325.55 109.842C1325.55 110.158 1325.8 110.414 1326.12 110.414H1409.44C1409.75 110.414 1410.01 110.158 1410.01 109.842C1410.01 109.526 1409.75 109.269 1409.44 109.269Z" fill="#92BEFF"/>
<path d="M1349.81 109.432L1341.9 101.514C1341.67 101.291 1341.31 101.291 1341.09 101.514C1340.86 101.738 1340.86 102.1 1341.09 102.324L1349 110.241L1349.81 109.432Z" fill="#92BEFF"/>
<path d="M1365.15 109.422L1352.74 97.0189C1352.52 96.7954 1352.16 96.7954 1351.93 97.0189C1351.71 97.2425 1351.71 97.6049 1351.93 97.8285L1364.34 110.231L1365.15 109.422Z" fill="#92BEFF"/>
<path d="M1380.51 109.436L1365.47 94.3938C1365.25 94.1702 1364.89 94.1702 1364.66 94.3938C1364.44 94.6174 1364.44 94.9798 1364.66 95.2034L1379.71 110.245L1380.51 109.436Z" fill="#92BEFF"/>
<path d="M1348.6 109.8L1341.09 117.314C1340.87 117.537 1340.87 117.9 1341.09 118.123C1341.31 118.347 1341.67 118.347 1341.9 118.123L1349.41 110.609C1349.63 110.386 1349.63 110.023 1349.41 109.8C1349.19 109.576 1348.82 109.576 1348.6 109.8Z" fill="#92BEFF"/>
<path d="M1363.94 109.855L1351.94 121.853C1351.72 122.077 1351.72 122.439 1351.94 122.663C1352.16 122.886 1352.53 122.886 1352.75 122.663L1364.75 110.665C1364.97 110.441 1364.97 110.079 1364.75 109.855C1364.52 109.632 1364.16 109.632 1363.94 109.855Z" fill="#92BEFF"/>
<path d="M1379.29 109.831L1364.65 124.468C1364.43 124.692 1364.43 125.054 1364.65 125.278C1364.88 125.502 1365.24 125.502 1365.46 125.278L1380.1 110.641C1380.32 110.417 1380.32 110.055 1380.1 109.831C1379.88 109.608 1379.51 109.608 1379.29 109.831Z" fill="#92BEFF"/>
</g>
</g>
</svg>
